/* XPM */
static char * medium_xpm[] = {
"16 16 2 1",
" 	c None",
".	c #FFFFFF",
"                ",
"                ",
"                ",
"      .         ",
"     ..   .     ",
"    ... .  .    ",
"  .....  .  .   ",
"  .....  .  .   ",
"  .....  .  .   ",
"  .....  .  .   ",
"    ... .  .    ",
"     ..   .     ",
"      .         ",
"                ",
"                ",
"                "};
