/* XPM */
static char * 0_xpm[] = {
"3 16 2 1",
" 	c None",
".	c #FFFFFF",
"   ",
"   ",
"   ",
" ..",
".  ",
".  ",
".  ",
".  ",
".  ",
".  ",
".  ",
".  ",
" ..",
"   ",
"   ",
"   "};
