/* XPM */
static char *bat_8_ac[] = {
/* columns rows colors chars-per-pixel */
"24 24 82 1 ",
"  c #AB0101",
". c #AD0000",
"X c #AE0000",
"o c #A00F0F",
"O c #A60F0F",
"+ c #AC0F0F",
"@ c #B10101",
"# c #B30000",
"$ c #B30101",
"% c #B40000",
"& c #B50202",
"* c #B90000",
"= c #BA0000",
"- c #BF0000",
"; c #BA0404",
": c #A92121",
"> c #A33737",
", c #A73737",
"< c #A63C3C",
"1 c #A63E3E",
"2 c #A73F3F",
"3 c #C00303",
"4 c #C62020",
"5 c #C22727",
"6 c #A64040",
"7 c #B54D4D",
"8 c #AF7171",
"9 c #B17272",
"0 c #BB7272",
"q c #C74343",
"w c #D65555",
"e c #D35D5D",
"r c #D36565",
"t c #D36969",
"y c #C18282",
"u c #E29393",
"i c #E09A9A",
"p c #E49A9A",
"a c #E09E9E",
"s c #C5AFAF",
"d c #C7AFAF",
"f c #D0ADAD",
"g c #C6B3B3",
"h c #E2A4A4",
"j c #E1A6A5",
"k c #E3A6A6",
"l c #E5A8A8",
"z c #D9D0D0",
"x c #DEDBDB",
"c c #EDD4D4",
"v c #E1DEDE",
"b c #F2D8D8",
"n c #E2E2E2",
"m c #E4E4E4",
"M c gray90",
"N c #ECE0E0",
"B c gray92",
"V c #ECEDEC",
"C c gray93",
"Z c #EEEEEE",
"A c #EFEFEF",
"S c #F3E1E1",
"D c #F5ECEC",
"F c gray94",
"G c #F1F1F1",
"H c gray95",
"J c #F3F3F3",
"K c #F4F4F4",
"L c gray96",
"P c #F7F4F4",
"I c #F6F6F6",
"U c #F7F6F7",
"Y c #F7F7F7",
"T c #F9F6F6",
"R c #F8F8F8",
"E c #F9F8F8",
"W c #F9F9F9",
"Q c gray98",
"! c #FBFBFB",
"~ c #FCFCFC",
"^ c #FDFDFD",
"/ c None",
/* pixels */
"////////////////////////",
"////////////////////////",
"////////////////////////",
"////////////////////////",
"////////////////////////",
"////////////////////////",
"//^^^^^^^^^^^^^^^^^^^///",
"//^WYYYYYYYYYYYYYWT!^///",
"/W^WWWWWWYWYKWTWWYYY!///",
"/YWWWWWWTbpwuWWWWWWWW///",
"/YWWWWSle4--rWWWWWTYWW//",
"/HWWct5;====qhhaihDY^WW/",
"/HWYf1166:$@@&$@+7vYWYW/",
"/HYYDnnnM0.. O,9svTTYYY/",
"/FYKYKYYYyo>8sxHYHYHYn//",
"/CYHYKKKYzgxFKHYYHHHY///",
"/BHYHYHHHYHYHHHYHHHHY///",
"//CHCHCHHHCHCHHHCHHHB///",
"////////////////////////",
"////////////////////////",
"////////////////////////",
"////////////////////////",
"////////////////////////",
"////////////////////////"
};
