/* XPM */
static char *bat_3_ac[] = {
/* columns rows colors chars-per-pixel */
"24 24 110 2 ",
"   c #720000",
".  c #750000",
"X  c #8B0000",
"o  c #900000",
"O  c #970000",
"+  c #9B0300",
"@  c #A10000",
"#  c #A70000",
"$  c #AB0000",
"%  c #AD0000",
"&  c #AE0000",
"*  c #B10000",
"=  c #B30000",
"-  c #B40000",
";  c #B50000",
":  c #B90000",
">  c #BA0000",
",  c #BA0300",
"<  c #BF0000",
"1  c #A91A00",
"2  c #A83300",
"3  c #A83400",
"4  c #A83500",
"5  c #A83600",
"6  c #C30000",
"7  c #C61900",
"8  c #C32100",
"9  c #BC5D00",
"0  c #D54E00",
"q  c #D55900",
"w  c #C36B00",
"e  c #D49200",
"r  c #E88C00",
"t  c #DFB000",
"y  c #E4BB00",
"u  c #E6BC00",
"i  c #E6BD00",
"p  c #F2B200",
"a  c #F6B300",
"s  c #F7BC00",
"d  c #EAC100",
"f  c #EBC100",
"g  c #F7CB00",
"h  c #FDCF00",
"j  c #FECF00",
"k  c #FED100",
"l  c #FFD100",
"z  c #FFD200",
"x  c #EBCE4A",
"c  c #ECCF4B",
"v  c #EDD04C",
"b  c #EED14D",
"n  c #EFD24E",
"m  c #F0D34F",
"M  c #E8CE50",
"N  c #DFC964",
"B  c #8A8A8A",
"V  c #8B8B8B",
"C  c #B7B7B7",
"Z  c #E1D392",
"A  c #E0D396",
"S  c gray78",
"D  c #CBCBCC",
"F  c #CDCDCE",
"G  c #CECECE",
"H  c #D7D4C4",
"J  c #D0D0D0",
"K  c #D2D3D3",
"L  c LightGray",
"P  c #D4D4D4",
"I  c #D4D4D5",
"U  c #D5D5D5",
"Y  c #D5D5D6",
"T  c #D7D7D8",
"R  c #D8D8D8",
"E  c gray85",
"W  c #D9D9DA",
"Q  c #DADADA",
"!  c #DBDBDC",
"~  c #DFDFDF",
"^  c #E2DECA",
"/  c #E2DECB",
"(  c #E2DECC",
")  c #E0DFDB",
"_  c #E1E1E1",
"`  c gray89",
"'  c #E4E4E4",
"]  c gray90",
"[  c #E6E6E6",
"{  c #ECECEC",
"}  c #EEEEEE",
"|  c #EFEFEF",
" . c #F0EFEA",
".. c gray94",
"X. c #F1F0F0",
"o. c #F1F1F0",
"O. c gray95",
"+. c #F3F2F2",
"@. c #F4F4F3",
"#. c #F4F4F4",
"$. c #F5F5F4",
"%. c #F6F6F5",
"&. c #F7F7F7",
"*. c #F8F7F7",
"=. c #F8F8F8",
"-. c #F9F9F8",
";. c #F9F9F9",
":. c gray98",
">. c gray99",
",. c None",
/* pixels */
",.,.,.,.,.,.,.,.,.,.,.,.,.,.,.,.,.,.,.,.,.,.,.,.",
",.,.,.,.,.,.,.,.,.,.,.,.,.,.,.,.,.,.,.,.,.,.,.,.",
",.,.,.,.,.,.,.,.,.,.,.,.,.,.,.,.,.,.,.,.,.,.,.,.",
",.,.,.,.,.,.,.,.,.,.,.,.,.,.,.,.,.,.,.,.,.,.,.,.",
",.,.,.,.,.,.,.,.,.,.,.,.,.,.,.,.,.,.,.,.,.,.,.,.",
",.,.,.,.,.,.,.,.,.,.,.,.,.,.,.,.,.,.,.,.,.,.,.,.",
",.,.O.&.&.&.&.&.&.&.&.&.&.&.&.&.&.&.&.&...,.,.,.",
",._ >. ./ / / / / ( ) ~ ~ ~ ~ ~ ~ _ _ &.-.,.,.,.",
",.! -.N i i i i i y ,.,.,.,.,.,.,.,.,.E -.,.,.,.",
",.E -.m k k k k j a ,.6 ,.,.,.,.,.,.,.E -.,.,.,.",
",.T @.b k k s r 0 7 < < > ,.,.,.,.,.,.E -.&.' ,.",
",.Y &.b p q 8 > > > > > - ,.,.,.,.,.,.Y -.-.[ ,.",
",.J &.v e 5 5 5 5 1 = = = - - = # O ,.J -.-.' ,.",
",.J O.c g d d d d 9 & & $ @ X . ,.,.,.J &.@.E ,.",
",.F o.x z k k k k w + X . ,.,.,.,.,.,.G O.C ,.,.",
",.D ..c z z k k k t ,.,.,.,.,.,.,.,.,.G O.,.,.,.",
",.S #./ Z Z Z Z Z A H Y J Y Y P P P Y [ { ,.,.,.",
",.,._ ..{ { { { { { { { { { { { { { { { Y ,.,.,.",
",.,.,.V B B B B B B B B B B B B B B V ,.,.,.,.,.",
",.,.,.,.,.,.,.,.,.,.,.,.,.,.,.,.,.,.,.,.,.,.,.,.",
",.,.,.,.,.,.,.,.,.,.,.,.,.,.,.,.,.,.,.,.,.,.,.,.",
",.,.,.,.,.,.,.,.,.,.,.,.,.,.,.,.,.,.,.,.,.,.,.,.",
",.,.,.,.,.,.,.,.,.,.,.,.,.,.,.,.,.,.,.,.,.,.,.,.",
",.,.,.,.,.,.,.,.,.,.,.,.,.,.,.,.,.,.,.,.,.,.,.,."
};
