/* XPM */
static char *bat_2_ac[] = {
/* columns rows colors chars-per-pixel */
"24 24 96 2 ",
"   c #720000",
".  c #750000",
"X  c #880000",
"o  c #8A0000",
"O  c #8B0000",
"+  c #900000",
"@  c #970000",
"#  c #9A0000",
"$  c #9D0000",
"%  c #A10000",
"&  c #A70000",
"*  c #A80000",
"=  c #AB0000",
"-  c #AD0000",
";  c #AE0000",
":  c #B10000",
">  c #B30000",
",  c #B40000",
"<  c #B50000",
"1  c #B90000",
"2  c #BA0000",
"3  c #BC0000",
"4  c #BD0000",
"5  c #BE0000",
"6  c #BF0000",
"7  c #C30000",
"8  c #CF0000",
"9  c #D40000",
"0  c #D50000",
"q  c #E60000",
"w  c #EA0000",
"e  c #F00000",
"r  c #F20000",
"t  c #F70000",
"y  c #FD0000",
"u  c #FE0000",
"i  c red",
"p  c #EB4A4A",
"a  c #EC4B4B",
"s  c #ED4C4C",
"d  c #EE4D4D",
"f  c #EF4E4E",
"g  c #F04F4F",
"h  c #E85050",
"j  c #DF6464",
"k  c #8A8A8A",
"l  c #8B8B8B",
"z  c #B7B7B7",
"x  c #E19292",
"c  c #DBB0B0",
"v  c gray78",
"b  c #CBCCCC",
"n  c #CDCECE",
"m  c #CECECE",
"M  c #D0D0D0",
"N  c #D2D3D3",
"B  c LightGray",
"V  c gray83",
"C  c #D5D5D5",
"Z  c #D4D6D6",
"A  c #D5D6D6",
"S  c #D7D8D8",
"D  c #D8D8D8",
"F  c gray85",
"G  c #D9DADA",
"H  c #DADADA",
"J  c #DBDCDC",
"K  c #DFDFDF",
"L  c #E2CACA",
"P  c #E2CBCB",
"I  c #E1D6D6",
"U  c #E1E1E1",
"Y  c gray89",
"T  c #E4E4E4",
"R  c gray90",
"E  c #E6E6E6",
"W  c #ECECEC",
"Q  c #EEEEEE",
"!  c #EFEFEF",
"~  c #F0EAEA",
"^  c gray94",
"/  c #F1F0F0",
"(  c gray95",
")  c #F3F2F2",
"_  c #F4F3F3",
"`  c #F4F4F4",
"'  c #F5F4F4",
"]  c #F6F5F5",
"[  c #F7F7F7",
"{  c #F8F7F7",
"}  c #F8F8F8",
"|  c #F9F8F8",
" . c #F9F9F9",
".. c gray98",
"X. c gray99",
"o. c None",
/* pixels */
"o.o.o.o.o.o.o.o.o.o.o.o.o.o.o.o.o.o.o.o.o.o.o.o.",
"o.o.o.o.o.o.o.o.o.o.o.o.o.o.o.o.o.o.o.o.o.o.o.o.",
"o.o.o.o.o.o.o.o.o.o.o.o.o.o.o.o.o.o.o.o.o.o.o.o.",
"o.o.o.o.o.o.o.o.o.o.o.o.o.o.o.o.o.o.o.o.o.o.o.o.",
"o.o.o.o.o.o.o.o.o.o.o.o.o.o.o.o.o.o.o.o.o.o.o.o.",
"o.o.o.o.o.o.o.o.o.o.o.o.o.o.o.o.o.o.o.o.o.o.o.o.",
"o.o.( [ [ [ [ [ [ [ [ [ [ [ [ [ [ [ [ [ ^ o.o.o.",
"o.U X.~ P P I K K K K K K K K K K U U [ | o.o.o.",
"o.K { j q q 8 o.o.o.o.o.o.o.o.o.o.o.o.F | o.o.o.",
"o.F { g i i o.o.o.o.o.7 o.o.o.o.o.o.o.F | o.o.o.",
"o.S _ g i i e o.3 3 7 3 2 o.o.o.o.o.o.F | [ T o.",
"o.A [ d e 9 3 2 2 2 < 2 < o.o.o.o.o.o.A | | E o.",
"o.M [ a 9 & # O O $ > > < < > > & @ o.M | | T o.",
"o.M ( a t w o.o.o.X ; ; = % O . o.o.o.M [ _ F o.",
"o.b ( p i i o.o.o.o.# O . o.o.o.o.o.o.m ( z o.o.",
"o.b ^ s i i o.o.o.o.o.o.o.o.o.o.o.o.o.m ( o.o.o.",
"o.v ` P x x c Z A M A A B B A B B A A E W o.o.o.",
"o.o.U ^ W W W W W W W W W W W W W W W W A o.o.o.",
"o.o.o.l k k k k k k k k l k k k k k l o.o.o.o.o.",
"o.o.o.o.o.o.o.o.o.o.o.o.o.o.o.o.o.o.o.o.o.o.o.o.",
"o.o.o.o.o.o.o.o.o.o.o.o.o.o.o.o.o.o.o.o.o.o.o.o.",
"o.o.o.o.o.o.o.o.o.o.o.o.o.o.o.o.o.o.o.o.o.o.o.o.",
"o.o.o.o.o.o.o.o.o.o.o.o.o.o.o.o.o.o.o.o.o.o.o.o.",
"o.o.o.o.o.o.o.o.o.o.o.o.o.o.o.o.o.o.o.o.o.o.o.o."
};
