/* XPM */
static char *bat_0_ac[] = {
/* columns rows colors chars-per-pixel */
"24 24 40 1 ",
"  c #790000",
". c #7D0000",
"X c #910000",
"o c #930000",
"O c #940000",
"+ c #970000",
"@ c #A20000",
"# c #A50000",
"$ c #A70000",
"% c #A80000",
"& c #A90000",
"* c #B00000",
"= c #B20000",
"- c #B70000",
"; c #BE0000",
": c #C10000",
"> c #C30000",
", c #C80000",
"< c #CC0000",
"1 c #CE0000",
"2 c #D80000",
"3 c #DFDFDF",
"4 c gray92",
"5 c gray93",
"6 c #EEEEEE",
"7 c #EFEFEF",
"8 c #F0F0F0",
"9 c #F1F1F1",
"0 c gray95",
"q c #F3F3F3",
"w c #F4F4F4",
"e c #F5F5F5",
"r c #F6F6F6",
"t c #F7F7F7",
"y c #F8F8F8",
"u c #F9F9F9",
"i c gray98",
"p c #FBFBFB",
"a c gray99",
"s c None",
/* pixels */
"ssssssssssssssssssssssss",
"ssssssssssssssssssssssss",
"ssssssssssssssssssssssss",
"ssssssssssssssssssssssss",
"ssssssssssssssssssssssss",
"ssssssssssssssssssssssss",
"ssaaaaaaaaaaaaaaaaaaasss",
"ssauwwwwwwwwwwwwwwwuasss",
"stasssssssssssssssswasss",
"swussssss2sss2ssssswusss",
"swusssss#<<s<,ssssswuuss",
"swussssss+>>;ssssss9uuus",
"s9usssssss=-=ssssss9uuws",
"s9tssssss&@X#&sssss9uwws",
"s7wsssss.Xss +sssss5w4ss",
"s9wssssssssssssssss59sss",
"s4wwsssssssssssssssw9sss",
"ss5997797997797979795sss",
"ssssssssssssssssssssssss",
"ssssssssssssssssssssssss",
"ssssssssssssssssssssssss",
"ssssssssssssssssssssssss",
"ssssssssssssssssssssssss",
"ssssssssssssssssssssssss"
};
