/* XPM */
static char *bat_7_ac[] = {
/* columns rows colors chars-per-pixel */
"24 24 78 1 ",
"  c #9B0A0A",
". c #AB0101",
"X c #AD0000",
"o c #AE0000",
"O c #A00F0F",
"+ c #A60F0F",
"@ c #AB0D0D",
"# c #B10101",
"$ c #B30000",
"% c #B30101",
"& c #B40000",
"* c #B50202",
"= c #B90000",
"- c #BA0000",
"; c #BF0000",
": c #BA0404",
"> c #A92121",
", c #A33737",
"< c #A73737",
"1 c #A63C3C",
"2 c #A63E3E",
"3 c #A73F3F",
"4 c #C00303",
"5 c #C62020",
"6 c #C22727",
"7 c #A64040",
"8 c #AF7171",
"9 c #B17272",
"0 c #BB7272",
"q c #C74343",
"w c #D65555",
"e c #D35D5D",
"r c #D36565",
"t c #D36969",
"y c #C18282",
"u c #DE9090",
"i c #E29393",
"p c #E49A9A",
"a c #E19E9E",
"s c #C1A7A7",
"d c #C5AFAF",
"f c #D0ADAD",
"g c #C6B3B3",
"h c #E2A5A5",
"j c #E2A6A6",
"k c #E5A8A8",
"l c #D9D0D0",
"z c #DEDBDB",
"x c #DFDCDC",
"c c #EDD4D4",
"v c #F2D8D8",
"b c #E2E2E2",
"n c #E4E4E4",
"m c gray90",
"M c gray92",
"N c #ECEDEC",
"B c gray93",
"V c #EEEEEE",
"C c #EFEFEF",
"Z c #F3E1E1",
"A c #F0F0F0",
"S c #F1F1F1",
"D c gray95",
"F c #F3F3F3",
"G c #F4F4F4",
"H c #F5F5F5",
"J c #F7F4F4",
"K c #F6F6F6",
"L c #F7F7F7",
"P c #F9F6F6",
"I c #F8F8F8",
"U c #F9F8F8",
"Y c #F9F9F9",
"T c #FAFAFA",
"R c #FBFBFB",
"E c #FCFCFC",
"W c #FDFDFD",
"Q c None",
/* pixels */
"QQQQQQQQQQQQQQQQQQQQQQQQ",
"QQQQQQQQQQQQQQQQQQQQQQQQ",
"QQQQQQQQQQQQQQQQQQQQQQQQ",
"QQQQQQQQQQQQQQQQQQQQQQQQ",
"QQQQQQQQQQQQQQQQQQQQQQQQ",
"QQQQQQQQQQQQQQQQQQQQQQQQ",
"QQWWWWWWWWWWWWWWWWWWWQQQ",
"QQWYLLLLLLLLLLLLLLLWWQQQ",
"QPRYYYYYYLYLGYPYYQQLYQQQ",
"QLRYYYYYPvpwiYEYYQQYYQQQ",
"QLYYYYZke5;;rYYYYQQLYYQQ",
"QFYYct6:----qhhhuQQFWYYQ",
"QFLLf2227>#.&&&#@ QFYLYQ",
"QFLLCbnnm0...+<9sQQFLLLQ",
"QCLFLFFLLyO,8gcFLQQCLbQQ",
"QCLFLFLLLlgzAHHHLQQCLQQQ",
"QMFLFLFFFFLFLFFFLQQLFQQQ",
"QQMFCCFCCFCCCCCFFCCFMQQQ",
"QQQQQQQQQQQQQQQQQQQQQQQQ",
"QQQQQQQQQQQQQQQQQQQQQQQQ",
"QQQQQQQQQQQQQQQQQQQQQQQQ",
"QQQQQQQQQQQQQQQQQQQQQQQQ",
"QQQQQQQQQQQQQQQQQQQQQQQQ",
"QQQQQQQQQQQQQQQQQQQQQQQQ"
};
