/* XPM */
static char *bat_5[] = {
/* columns rows colors chars-per-pixel */
"24 24 19 1 ",
"  c #E2E2E2",
". c gray92",
"X c #ECEDEC",
"o c gray93",
"O c #EEEEEE",
"+ c #F0F0F0",
"@ c #F1F1F1",
"# c #F3F3F3",
"$ c #F4F4F4",
"% c #F5F5F5",
"& c #F6F6F6",
"* c #F7F7F7",
"= c #F8F8F8",
"- c #F9F9F9",
"; c gray98",
": c #FBFBFB",
"> c #FCFCFC",
", c #FDFDFD",
"< c None",
/* pixels */
"<<<<<<<<<<<<<<<<<<<<<<<<",
"<<<<<<<<<<<<<<<<<<<<<<<<",
"<<<<<<<<<<<<<<<<<<<<<<<<",
"<<<<<<<<<<<<<<<<<<<<<<<<",
"<<<<<<<<<<<<<<<<<<<<<<<<",
"<<<<<<<<<<<<<<<<<<<<<<<<",
"<<,,,,,,,,,,,,,,-,,,,<<<",
"<<,--*-**--********,,<<<",
"<*-----------*<<<<<*-<<<",
"<*,,,-,-,-,--,<<<<<*,<<<",
"<*-----,-,-,--<<<<<*--<<",
"<#--,-------,-<<<<<#---<",
"<#**-------*--<<<<<#-*-<",
"<#*******-**-*<<<<<#***<",
"<o************<<<<<#* <<",
"<o#**#*#***#**<<<<<o*<<<",
"<o#*###**###*#<<<<<*#<<<",
"<<.#o##oo#o##oo#o#o#X<<<",
"<<<<<<<<<<<<<<<<<<<<<<<<",
"<<<<<<<<<<<<<<<<<<<<<<<<",
"<<<<<<<<<<<<<<<<<<<<<<<<",
"<<<<<<<<<<<<<<<<<<<<<<<<",
"<<<<<<<<<<<<<<<<<<<<<<<<",
"<<<<<<<<<<<<<<<<<<<<<<<<"
};
