/* XPM */
static char *bat_1_ac[] = {
/* columns rows colors chars-per-pixel */
"24 24 60 1 ",
"  c #700000",
". c #740000",
"X c #840000",
"o c #870000",
"O c #890000",
"+ c #8A0000",
"@ c #8E0000",
"# c #8F0000",
"$ c #900000",
"% c #910000",
"& c #930000",
"* c #940000",
"= c #950000",
"- c #980000",
"; c #990000",
": c #9B0000",
"> c #9C0000",
", c #9D0000",
"< c #9F0000",
"1 c #A00000",
"2 c #A10000",
"3 c #A20000",
"4 c #A30000",
"5 c #A40000",
"6 c #A50000",
"7 c #A60000",
"8 c #A70000",
"9 c #A80000",
"0 c #A90000",
"q c #AA0000",
"w c #AB0000",
"e c #AC0000",
"r c #AD0000",
"t c #AE0000",
"y c #AF0000",
"u c #B10000",
"i c #B20000",
"p c #B30000",
"a c #B50000",
"s c #B60000",
"d c #B70000",
"f c #B80000",
"g c #B90000",
"h c #BA0000",
"j c #BB0000",
"k c #BC0000",
"l c #BD0000",
"z c #BF0000",
"x c #C10000",
"c c #C20000",
"v c #C40000",
"b c #C70000",
"n c #CC0000",
"m c #CD0000",
"M c #D00000",
"N c #D10000",
"B c #D20000",
"V c #D30000",
"C c #D40000",
"Z c None",
/* pixels */
"ZZZZZZZZZZZZZZZZZZZZZZZZ",
"ZZZZZZZZZZZZZZZZZZZZZZZZ",
"ZZZZZZZZZZZZZZZZZZZZZZZZ",
"ZZZZZZZZZZZZZZZZZZZZZZZZ",
"ZZZZZZZZZZZZZZZZZZZZZZZZ",
"ZZZZZZZZZZZZZZZZZZZZZZZZ",
"ZZMMMMCMCMMCCMCCMCCCMZZZ",
"ZZnf666466666466666vnZZZ",
"ZtvZZZZZZZZZZZZZZZZ4vZZZ",
"Z6lZZZZZZZZxZZZZZZZ6xZZZ",
"Z4fZZZZZfflldZZZZZZ4llZZ",
"Z<dZZdddffdduZZZZZZ<ffuZ",
"Z;tZZ++++;uuuuut6*Z;uutZ",
"Z&9ZZZZZZ+9t9<@.ZZZ*t9<Z",
"Z@6ZZZZZZZ;+ ZZZZZZ&6.ZZ",
"Z+4ZZZZZZZZZZZZZZZZ@4ZZZ",
"ZX<;ZZZZZZZZZZZZZZZ;<ZZZ",
"ZZX&&@@&&&&&&&&&&&&&XZZZ",
"ZZZZZZZZZZZZZZZZZZZZZZZZ",
"ZZZZZZZZZZZZZZZZZZZZZZZZ",
"ZZZZZZZZZZZZZZZZZZZZZZZZ",
"ZZZZZZZZZZZZZZZZZZZZZZZZ",
"ZZZZZZZZZZZZZZZZZZZZZZZZ",
"ZZZZZZZZZZZZZZZZZZZZZZZZ"
};
