/* XPM */
static char *bat_5_ac[] = {
/* columns rows colors chars-per-pixel */
"24 24 71 1 ",
"  c #750000",
". c #900101",
"X c #970000",
"o c #A70000",
"O c #AB0101",
"+ c #AD0000",
"@ c #AE0000",
"# c #A50A0A",
"$ c #A00F0F",
"% c #B10000",
"& c #B30000",
"* c #B30101",
"= c #B40000",
"- c #B40101",
"; c #B90000",
": c #BA0000",
"> c #BF0000",
", c #BA0404",
"< c #A92121",
"1 c #A33737",
"2 c #A73D3D",
"3 c #A73E3E",
"4 c #A73F3F",
"5 c #C00303",
"6 c #C62020",
"7 c #C22727",
"8 c #A74040",
"9 c #AF7171",
"0 c #BC7373",
"q c #C84444",
"w c #D65656",
"e c #D35D5D",
"r c #D36565",
"t c #D36A6A",
"y c #B59797",
"u c #C18383",
"i c #DB8C8C",
"p c #E39494",
"a c #E59B9B",
"s c #D0AEAE",
"d c #C6B3B3",
"f c #E5A8A8",
"g c #D9D0D0",
"h c #DEDBDB",
"j c #EED5D5",
"k c #F3D9D9",
"l c #E2E2E2",
"z c gray90",
"x c #E6E6E6",
"c c gray92",
"v c #ECEDEC",
"b c gray93",
"n c #EEEEEE",
"m c #F3E1E1",
"M c #F0F0F0",
"N c #F1F1F1",
"B c #F3F3F3",
"V c #F4F4F4",
"C c gray96",
"Z c #F6F6F6",
"A c #F7F7F7",
"S c #F8F5F5",
"D c #FAF7F7",
"F c #F8F8F8",
"G c #F9F8F8",
"H c #F9F9F9",
"J c gray98",
"K c #FBFBFB",
"L c #FCFCFC",
"P c #FDFDFD",
"I c None",
/* pixels */
"IIIIIIIIIIIIIIIIIIIIIIII",
"IIIIIIIIIIIIIIIIIIIIIIII",
"IIIIIIIIIIIIIIIIIIIIIIII",
"IIIIIIIIIIIIIIIIIIIIIIII",
"IIIIIIIIIIIIIIIIIIIIIIII",
"IIIIIIIIIIIIIIIIIIIIIIII",
"IIPPPPPPPPPPPPPPHPPPPIII",
"IIPHHAHAAHHAAAAAAAAPPIII",
"IAHHHHHHHHHAAHIIIIIAHIII",
"IAPLHLLHDkawpHIIIIIAPIII",
"IAHLHHmfe6>>rHIIIIIAHHII",
"IMHHjt7,::::qiIIIIIMHHHI",
"IAAHs3338<-%---%oXIAHHHI",
"IMAAnzzzx0O*O#. IIIMAAAI",
"IMAAAAAAHuX39yIIIIIMAlII",
"InAMAVVAAgdhMAIIIIInAIII",
"IcMAAAMAAMAAMAIIIIIAMIII",
"IInMnnMnMMnMMnMMMMMMnIII",
"IIIIIIIIIIIIIIIIIIIIIIII",
"IIIIIIIIIIIIIIIIIIIIIIII",
"IIIIIIIIIIIIIIIIIIIIIIII",
"IIIIIIIIIIIIIIIIIIIIIIII",
"IIIIIIIIIIIIIIIIIIIIIIII",
"IIIIIIIIIIIIIIIIIIIIIIII"
};
