/* XPM */
static char *bat_1[] = {
/* columns rows colors chars-per-pixel */
"24 24 49 1 ",
"  c #740000",
". c #840000",
"X c #870000",
"o c #8A0000",
"O c #8F0000",
"+ c #900000",
"@ c #910000",
"# c #930000",
"$ c #940000",
"% c #980000",
"& c #990000",
"* c #9B0000",
"= c #9C0000",
"- c #9D0000",
"; c #9F0000",
": c #A00000",
"> c #A10000",
", c #A20000",
"< c #A30000",
"1 c #A40000",
"2 c #A50000",
"3 c #A60000",
"4 c #A70000",
"5 c #A80000",
"6 c #AA0000",
"7 c #AC0000",
"8 c #AD0000",
"9 c #AF0000",
"0 c #B20000",
"q c #B30000",
"w c #B50000",
"e c #B80000",
"r c #B90000",
"t c #BA0000",
"y c #BC0000",
"u c #BD0000",
"i c #BF0000",
"p c #C10000",
"a c #C20000",
"s c #C40000",
"d c #C70000",
"f c #CC0000",
"g c #CD0000",
"h c #D00000",
"j c #D10000",
"k c #D20000",
"l c #D30000",
"z c #D40000",
"x c None",
/* pixels */
"xxxxxxxxxxxxxxxxxxxxxxxx",
"xxxxxxxxxxxxxxxxxxxxxxxx",
"xxxxxxxxxxxxxxxxxxxxxxxx",
"xxxxxxxxxxxxxxxxxxxxxxxx",
"xxxxxxxxxxxxxxxxxxxxxxxx",
"xxxxxxxxxxxxxxxxxxxxxxxx",
"xxhhhhzhzhhzzhzzhzzzhxxx",
"xxfe222<22222<22222pfxxx",
"x6sxxxxxxxxxxxxxxxx=dxxx",
"x2pxxxxxxxxxxxxxxxx6pxxx",
"x<exxxxxxxxxxxxxxxx<iixx",
"x=wxxxxxxxxxxxxxxxx=ee0x",
"x%9xxxxxxxxxxxxxxxx%009x",
"x#6xxxxxxxxxxxxxxxx$96=x",
"xO2xxxxxxxxxxxxxxxxO< xx",
"xo<xxxxxxxxxxxxxxxxO<xxx",
"x.=%xxxxxxxxxxxxxxx%=xxx",
"xx.###O#############oxxx",
"xxxxxxxxxxxxxxxxxxxxxxxx",
"xxxxxxxxxxxxxxxxxxxxxxxx",
"xxxxxxxxxxxxxxxxxxxxxxxx",
"xxxxxxxxxxxxxxxxxxxxxxxx",
"xxxxxxxxxxxxxxxxxxxxxxxx",
"xxxxxxxxxxxxxxxxxxxxxxxx"
};
