/* XPM */
static char *bat_3[] = {
/* columns rows colors chars-per-pixel */
"24 24 68 1 ",
"  c #E4BB00",
". c #E6BC00",
"X c #E6BD00",
"o c #FED100",
"O c #FFD100",
"+ c #FFD200",
"@ c #EBCE4A",
"# c #ECCF4B",
"$ c #EDD04C",
"% c #EED14D",
"& c #EFD24E",
"* c #F0D34F",
"= c #E8CE50",
"- c #DFC964",
"; c #8A8A8A",
": c #8B8B8B",
"> c #B7B7B7",
", c #E1D392",
"< c #E0D396",
"1 c gray78",
"2 c #CBCBCC",
"3 c #CDCDCE",
"4 c #CECECE",
"5 c #D7D4C4",
"6 c #D0D0D0",
"7 c #D2D3D3",
"8 c LightGray",
"9 c #D4D4D4",
"0 c #D4D4D5",
"q c #D5D5D5",
"w c #D5D5D6",
"e c #D7D7D8",
"r c #D8D8D8",
"t c gray85",
"y c #D9D9DA",
"u c #DADADA",
"i c #DBDBDC",
"p c #DFDFDF",
"a c #E2DECA",
"s c #E2DECB",
"d c #E2DECC",
"f c #E0DFDB",
"g c #E1E1E1",
"h c gray89",
"j c #E4E4E4",
"k c gray90",
"l c #E6E6E6",
"z c #ECECEC",
"x c #EEEEEE",
"c c #EFEFEF",
"v c #F0EFEA",
"b c gray94",
"n c #F1F0F0",
"m c #F1F1F0",
"M c gray95",
"N c #F3F2F2",
"B c #F4F4F3",
"V c #F4F4F4",
"C c #F5F5F4",
"Z c #F6F6F5",
"A c #F7F7F7",
"S c #F8F7F7",
"D c #F8F8F8",
"F c #F9F9F8",
"G c #F9F9F9",
"H c gray98",
"J c gray99",
"K c None",
/* pixels */
"KKKKKKKKKKKKKKKKKKKKKKKK",
"KKKKKKKKKKKKKKKKKKKKKKKK",
"KKKKKKKKKKKKKKKKKKKKKKKK",
"KKKKKKKKKKKKKKKKKKKKKKKK",
"KKKKKKKKKKKKKKKKKKKKKKKK",
"KKKKKKKKKKKKKKKKKKKKKKKK",
"KKMAAAAAAAAAAAAAAAAAbKKK",
"KgJvsssssdfppppppggAFKKK",
"KiS- XX X KKKKKKKKKtFKKK",
"KtS*++++++KKKKKKKKKtFKKK",
"KeA%++oo+oKKKKKKKKKtFAjK",
"KwA#o+oo++KKKKKKKKKwFFlK",
"K6A$oooo++KKKKKKKKK6FFjK",
"K6M#+oooo+KKKKKKKKK6ABtK",
"K3m@+oooooKKKKKKKKK4M>KK",
"K2b#++++++KKKKKKKKK4MKKK",
"K1Vs,,,,,<5w6ww999wlzKKK",
"KKgbzzzzzzzzzzzzzzzzwKKK",
"KKK:;;;;;;;;;;;;;;:KKKKK",
"KKKKKKKKKKKKKKKKKKKKKKKK",
"KKKKKKKKKKKKKKKKKKKKKKKK",
"KKKKKKKKKKKKKKKKKKKKKKKK",
"KKKKKKKKKKKKKKKKKKKKKKKK",
"KKKKKKKKKKKKKKKKKKKKKKKK"
};
