/* XPM */
static char *bat_2[] = {
/* columns rows colors chars-per-pixel */
"24 24 63 1 ",
"  c #CF0000",
". c #E60000",
"X c #FE0000",
"o c red",
"O c #EB4A4A",
"+ c #EC4B4B",
"@ c #ED4C4C",
"# c #EE4D4D",
"$ c #EF4E4E",
"% c #F04F4F",
"& c #E85050",
"* c #DF6464",
"= c #8A8A8A",
"- c #8B8B8B",
"; c #B7B7B7",
": c #E19292",
"> c #DBB0B0",
", c gray78",
"< c #CBCCCC",
"1 c #CDCECE",
"2 c #CECECE",
"3 c #D0D0D0",
"4 c #D2D3D3",
"5 c LightGray",
"6 c gray83",
"7 c #D5D5D5",
"8 c #D4D6D6",
"9 c #D5D6D6",
"0 c #D7D8D8",
"q c #D8D8D8",
"w c gray85",
"e c #D9DADA",
"r c #DADADA",
"t c #DBDCDC",
"y c #DFDFDF",
"u c #E2CACA",
"i c #E2CBCB",
"p c #E1D6D6",
"a c #E1E1E1",
"s c gray89",
"d c #E4E4E4",
"f c gray90",
"g c #E6E6E6",
"h c #ECECEC",
"j c #EEEEEE",
"k c #EFEFEF",
"l c #F0EAEA",
"z c gray94",
"x c #F1F0F0",
"c c gray95",
"v c #F3F2F2",
"b c #F4F3F3",
"n c #F4F4F4",
"m c #F5F4F4",
"M c #F6F5F5",
"N c #F7F7F7",
"B c #F8F7F7",
"V c #F8F8F8",
"C c #F9F8F8",
"Z c #F9F9F9",
"A c gray98",
"S c gray99",
"D c None",
/* pixels */
"DDDDDDDDDDDDDDDDDDDDDDDD",
"DDDDDDDDDDDDDDDDDDDDDDDD",
"DDDDDDDDDDDDDDDDDDDDDDDD",
"DDDDDDDDDDDDDDDDDDDDDDDD",
"DDDDDDDDDDDDDDDDDDDDDDDD",
"DDDDDDDDDDDDDDDDDDDDDDDD",
"DDcNNNNNNNNNNNNNNNNZhDDD",
"DaSliipyyyyyyyyyyyaZZDDD",
"DtZ*.. DDDDDDDDDDDDwZDDD",
"DwZ#ooDDDDDDDDDDDDDwZDDD",
"D0b#ooDDDDDDDDDDDDDwZNaD",
"D9N#ooDDDDDDDDDDDDD9ZZgD",
"D3N+ooDDDDDDDDDDDDD3BZdD",
"D3c+ooDDDDDDDDDDDDD3BbwD",
"D<cOooDDDDDDDDDDDDD2c;DD",
"D<z@ooDDDDDDDDDDDDD2cDDD",
"D,ni::>893995595599ghDDD",
"DDazhhhhhhhhhhhhhhhh9DDD",
"DDD-========-=====-DDDDD",
"DDDDDDDDDDDDDDDDDDDDDDDD",
"DDDDDDDDDDDDDDDDDDDDDDDD",
"DDDDDDDDDDDDDDDDDDDDDDDD",
"DDDDDDDDDDDDDDDDDDDDDDDD",
"DDDDDDDDDDDDDDDDDDDDDDDD"
};
