/* XPM */
static char *bat_8[] = {
/* columns rows colors chars-per-pixel */
"24 24 22 1 ",
"  c #E2E2E2",
". c gray92",
"X c #ECEDEC",
"o c gray93",
"O c #EEEEEE",
"+ c #F0F0F0",
"@ c #F1F1F1",
"# c gray95",
"$ c #F3F3F3",
"% c #F4F4F4",
"& c gray96",
"* c #F6F6F6",
"= c #F7F6F7",
"- c gray97",
"; c #F8F8F8",
": c #F8F9F8",
"> c #F9F9F9",
", c #FAFAFA",
"< c #FBFBFB",
"1 c #FCFCFC",
"2 c #FDFDFD",
"3 c None",
/* pixels */
"333333333333333333333333",
"333333333333333333333333",
"333333333333333333333333",
"333333333333333333333333",
"333333333333333333333333",
"333333333333333333333333",
"332222222222222222222333",
"332>-------------->>2333",
"3;2>>>>>>->->>>-----2333",
"3->>>>>>>>2>>>>>>>>>>333",
"3->>><>>>>>>>>>>>>>->>33",
"3$>>>>>>>>>>>;>>>--->2>3",
"3$-----;;---;;;----$>->3",
"3$-----------------$---3",
"3o-%-----------%-$$$- 33",
"3o-$$-$$-%$-$%%$$-$$-333",
"3.$%%%%%-$$$-$-$$$$-$333",
"33o$++++o$o$$oo$o$o$.333",
"333333333333333333333333",
"333333333333333333333333",
"333333333333333333333333",
"333333333333333333333333",
"333333333333333333333333",
"333333333333333333333333"
};
