/* XPM */
static char *net_1[] = {
/* columns rows colors chars-per-pixel */
"24 24 15 1 ",
"  c #EFEFEF",
". c gray94",
"X c #F1F1F1",
"o c gray95",
"O c #F4F4F4",
"+ c gray96",
"@ c #F6F6F6",
"# c gray97",
"$ c #F8F8F8",
"% c #F9F9F9",
"& c gray98",
"* c #FBFBFB",
"= c gray99",
"- c #FDFDFD",
"; c None",
/* pixels */
";;;;;;;;;;;;;;;;;;;;;;;;",
";;;;;;;;;;;;;;;;;;;;;;;;",
";;;;;;;;;;;;;;;;;;;;;;;;",
";;;;;;;;;;;;;;;;;;;==;;;",
";;;;;;;;;;;;;;;;;;==;;;;",
";;;;;;;;;;;;;;;;;==;;;;;",
";;;;;;;;;;;;;;;;*=;;;;;;",
";;;;;;;;;;;;;*;;;;;;;;;;",
";;;;;;;;;;;;*;;;*;;;;;;;",
";;;;;;;;;;;;*;;;*;;;;;;;",
";;;;;;;;;;;;;*;*;;;;;;;;",
";;;;;;;;;*;;;;#;;;;;;;;;",
";;;;;;;;*;*;;;;;;;;;;;;;",
";;;;;;;#;;;#;;;;;;;;;;;;",
";;;;;;;#;;;#;;;;;;;;;;;;",
";;;;;;;#;;#;;;;;;;;;;;;;",
";;;;;;#;;;;;;;;;;;;;;;;;",
";;;;;oo;;;;;;;;;;;;;;;;;",
";;;; o;;;;;;;;;;;;;;;;;;",
";;;  ;;;;;;;;;;;;;;;;;;;",
";;;;;;;;;;;;;;;;;;;;;;;;",
";;;;;;;;;;;;;;;;;;;;;;;;",
";;;;;;;;;;;;;;;;;;;;;;;;",
";;;;;;;;;;;;;;;;;;;;;;;;"
};
