/* XPM */
static char *net_0[] = {
/* columns rows colors chars-per-pixel */
"24 24 14 1 ",
"  c #ECECEC",
". c #EEEEEE",
"X c gray94",
"o c #F1F1F1",
"O c #F3F3F3",
"+ c #F4F4F4",
"@ c #F6F5F6",
"# c #F6F6F6",
"$ c #F9F9F9",
"% c gray98",
"& c #FBFBFB",
"* c #FCFCFC",
"= c #FDFDFD",
"- c None",
/* pixels */
"------------------------",
"------------------------",
"------------------------",
"--------------------*---",
"-------------------**---",
"------------------*-----",
"---------------*--*-----",
"--------------&---*-----",
"------------------&-----",
"-----------------&------",
"----------------&-------",
"------------------------",
"------------------------",
"------------------------",
"-------##---------------",
"------#--#--------------",
"----------o-------------",
"-----o---o--------------",
"-----oo.o---------------",
"----.-------------------",
"---.--------------------",
"------------------------",
"------------------------",
"------------------------"
};
